<svg xmlns="http://www.w3.org/2000/svg" width="960" height="640" viewBox="0 0 960 640" aria-labelledby="t2" role="img">
  <title id="t2">SIGTS low-fi wireframe: tourist home dashboard</title>
  <desc>App shell with left nav, top bar, quick-entry tiles, stacked panels. WF-02.</desc>
  <rect fill="#f5f5f5" width="960" height="640"/>
  <text x="24" y="32" font-family="ui-sans-serif,sans-serif" font-size="13" fill="#666">WF-02 | Visitor | Home dashboard</text>
  <rect x="0" y="48" width="200" height="592" fill="#e8e8e8" stroke="#333" stroke-width="2"/>
  <rect x="16" y="64" width="168" height="40" fill="#ddd" stroke="#555"/>
  <text x="100" y="90" text-anchor="middle" font-family="ui-sans-serif,sans-serif" font-size="11" fill="#444">Brand / SIGTS</text>
  <rect x="16" y="120" width="168" height="28" fill="#fff" stroke="#999"/>
  <text x="24" y="138" font-family="ui-sans-serif,sans-serif" font-size="11" fill="#333">Dashboard</text>
  <rect x="16" y="156" width="168" height="28" fill="#fff" stroke="#999"/>
  <text x="24" y="174" font-family="ui-sans-serif,sans-serif" font-size="11" fill="#333">Animals | Map | Culture</text>
  <rect x="16" y="192" width="168" height="28" fill="#fff" stroke="#999"/>
  <text x="24" y="210" font-family="ui-sans-serif,sans-serif" font-size="11" fill="#333">Sightings | Saved | Profile</text>
  <rect x="16" y="228" width="168" height="28" fill="#fff" stroke="#999"/>
  <text x="24" y="246" font-family="ui-sans-serif,sans-serif" font-size="11" fill="#333">Info | AI chat</text>
  <text x="24" y="600" font-family="ui-sans-serif,sans-serif" font-size="10" fill="#666">Logout</text>
  <rect x="200" y="48" width="760" height="56" fill="#fff" stroke="#333"/>
  <rect x="216" y="64" width="36" height="28" fill="#ddd" stroke="#555"/>
  <text x="224" y="82" font-family="ui-sans-serif,sans-serif" font-size="10" fill="#333">Menu</text>
  <text x="268" y="82" font-family="ui-sans-serif,sans-serif" font-size="13" font-weight="600" fill="#222">Home</text>
  <text x="720" y="82" font-family="ui-sans-serif,sans-serif" font-size="10" fill="#555">Network | geofence status</text>
  <text x="220" y="132" font-family="ui-sans-serif,sans-serif" font-size="12" fill="#444">Quick entry</text>
  <rect x="220" y="144" width="120" height="88" fill="#e0e0e0" stroke="#333"/>
  <text x="280" y="198" text-anchor="middle" font-family="ui-sans-serif,sans-serif" font-size="11" fill="#333">Animals</text>
  <rect x="348" y="144" width="120" height="88" fill="#e0e0e0" stroke="#333"/>
  <text x="408" y="198" text-anchor="middle" font-family="ui-sans-serif,sans-serif" font-size="11" fill="#333">Map</text>
  <rect x="476" y="144" width="120" height="88" fill="#e0e0e0" stroke="#333"/>
  <text x="536" y="198" text-anchor="middle" font-family="ui-sans-serif,sans-serif" font-size="11" fill="#333">Culture</text>
  <rect x="604" y="144" width="120" height="88" fill="#e0e0e0" stroke="#333"/>
  <text x="664" y="198" text-anchor="middle" font-family="ui-sans-serif,sans-serif" font-size="11" fill="#333">Info</text>
  <rect x="220" y="256" width="340" height="160" fill="#fff" stroke="#333" stroke-width="2"/>
  <text x="232" y="280" font-family="ui-sans-serif,sans-serif" font-size="12" font-weight="600" fill="#222">Recommendations / seasonal</text>
  <line x1="232" y1="296" x2="528" y2="296" stroke="#ccc"/>
  <text x="232" y="324" font-family="ui-sans-serif,sans-serif" font-size="10" fill="#666">List items, quote panel</text>
  <rect x="580" y="256" width="360" height="160" fill="#fff" stroke="#333" stroke-width="2"/>
  <text x="592" y="280" font-family="ui-sans-serif,sans-serif" font-size="12" font-weight="600" fill="#222">AI strip / trending</text>
  <rect x="592" y="296" width="160" height="28" fill="#eee" stroke="#999"/>
  <text x="600" y="314" font-family="ui-sans-serif,sans-serif" font-size="10" fill="#555">Ask NLP</text>
  <rect x="220" y="432" width="720" height="192" fill="#fff" stroke="#333" stroke-width="2"/>
  <text x="232" y="456" font-family="ui-sans-serif,sans-serif" font-size="12" font-weight="600" fill="#222">Species spotlight (card grid)</text>
  <rect x="232" y="472" width="100" height="72" fill="#ddd" stroke="#777"/>
  <rect x="340" y="472" width="100" height="72" fill="#ddd" stroke="#777"/>
  <rect x="448" y="472" width="100" height="72" fill="#ddd" stroke="#777"/>
  <rect x="556" y="472" width="100" height="72" fill="#ddd" stroke="#777"/>
</svg>
