<svg xmlns="http://www.w3.org/2000/svg" width="960" height="640" viewBox="0 0 960 640" aria-labelledby="t3" role="img">
  <title id="t3">SIGTS low-fi wireframe: map and trail guidance</title>
  <desc>Map canvas, layers, legend, optional bottom sheet. Visitor-facing. WF-03.</desc>
  <rect fill="#f5f5f5" width="960" height="640"/>
  <text x="24" y="32" font-family="ui-sans-serif,sans-serif" font-size="13" fill="#666">WF-03 | Visitor | Map and guidance</text>
  <rect x="200" y="48" width="760" height="56" fill="#fff" stroke="#333"/>
  <text x="220" y="82" font-family="ui-sans-serif,sans-serif" font-size="13" font-weight="600" fill="#222">Map &amp; guidance</text>
  <text x="720" y="82" font-family="ui-sans-serif,sans-serif" font-size="10" fill="#555">Layer | measure | locate me</text>
  <rect x="220" y="120" width="720" height="488" fill="#d8d8d8" stroke="#333" stroke-width="2"/>
  <path d="M280 480 L400 200 L520 320 L640 240 L780 400" fill="none" stroke="#888" stroke-width="3" stroke-dasharray="8 6"/>
  <circle cx="400" cy="200" r="10" fill="#666" stroke="#222"/>
  <text x="240" y="160" font-family="ui-sans-serif,sans-serif" font-size="11" fill="#555">Tiles / boundary</text>
  <rect x="236" y="136" width="140" height="88" fill="#fff" stroke="#333" opacity="0.95"/>
  <text x="244" y="158" font-family="ui-sans-serif,sans-serif" font-size="10" font-weight="600" fill="#222">Layers</text>
  <rect x="244" y="166" width="120" height="18" fill="#eee" stroke="#999"/>
  <rect x="244" y="190" width="120" height="18" fill="#eee" stroke="#999"/>
  <rect x="780" y="136" width="144" height="100" fill="#fff" stroke="#333" opacity="0.95"/>
  <text x="788" y="158" font-family="ui-sans-serif,sans-serif" font-size="10" font-weight="600" fill="#222">Legend</text>
  <text x="788" y="182" font-family="ui-sans-serif,sans-serif" font-size="9" fill="#555">POI, trail, you are here</text>
  <rect x="220" y="520" width="720" height="80" fill="#fff" stroke="#333"/>
  <text x="232" y="548" font-family="ui-sans-serif,sans-serif" font-size="11" fill="#444">Selected POI or turn-by-turn snippet (optional)</text>
</svg>
