<svg xmlns="http://www.w3.org/2000/svg" width="960" height="640" viewBox="0 0 960 640" aria-labelledby="t5" role="img">
  <title id="t5">SIGTS low-fi wireframe: guide dashboard</title>
  <desc>KPI strip, tour actions, assignments, messages, sync. WF-05.</desc>
  <rect fill="#f5f5f5" width="960" height="640"/>
  <text x="24" y="32" font-family="ui-sans-serif,sans-serif" font-size="13" fill="#666">WF-05 | Field guide | Operations</text>
  <rect x="0" y="48" width="200" height="592" fill="#e8e8e8" stroke="#333" stroke-width="2"/>
  <text x="100" y="88" text-anchor="middle" font-family="ui-sans-serif,sans-serif" font-size="11" fill="#444">Guide nav (subset)</text>
  <rect x="200" y="48" width="760" height="56" fill="#fff" stroke="#333"/>
  <text x="220" y="82" font-family="ui-sans-serif,sans-serif" font-size="13" font-weight="600" fill="#222">Guide dashboard</text>
  <rect x="220" y="120" width="160" height="72" fill="#e0e0e0" stroke="#333"/>
  <text x="232" y="148" font-family="ui-sans-serif,sans-serif" font-size="10" fill="#555">Shift / clock</text>
  <text x="232" y="172" font-family="ui-sans-serif,sans-serif" font-size="14" font-weight="600" fill="#222">State</text>
  <rect x="396" y="120" width="160" height="72" fill="#e0e0e0" stroke="#333"/>
  <text x="408" y="148" font-family="ui-sans-serif,sans-serif" font-size="10" fill="#555">Active tour</text>
  <rect x="572" y="120" width="160" height="72" fill="#e0e0e0" stroke="#333"/>
  <text x="584" y="148" font-family="ui-sans-serif,sans-serif" font-size="10" fill="#555">Sightings today</text>
  <rect x="748" y="120" width="192" height="72" fill="#e0e0e0" stroke="#333"/>
  <text x="760" y="148" font-family="ui-sans-serif,sans-serif" font-size="10" fill="#555">Alerts</text>
  <rect x="220" y="216" width="200" height="48" fill="#ccc" stroke="#333" stroke-width="2"/>
  <text x="320" y="246" text-anchor="middle" font-family="ui-sans-serif,sans-serif" font-size="12" font-weight="600" fill="#222">Start / end tour</text>
  <rect x="436" y="216" width="200" height="48" fill="#ccc" stroke="#333" stroke-width="2"/>
  <text x="536" y="246" text-anchor="middle" font-family="ui-sans-serif,sans-serif" font-size="12" font-weight="600" fill="#222">Quick sighting</text>
  <rect x="220" y="288" width="720" height="200" fill="#fff" stroke="#333" stroke-width="2"/>
  <text x="232" y="316" font-family="ui-sans-serif,sans-serif" font-size="12" font-weight="600" fill="#222">Assignments / group (if any)</text>
  <line x1="232" y1="328" x2="900" y2="328" stroke="#ddd"/>
  <text x="232" y="356" font-family="ui-sans-serif,sans-serif" font-size="10" fill="#666">Rows (roster, vehicle, notes)</text>
  <rect x="220" y="504" width="340" height="120" fill="#fff" stroke="#333"/>
  <text x="232" y="528" font-family="ui-sans-serif,sans-serif" font-size="11" font-weight="600" fill="#222">Messages / notices</text>
  <rect x="580" y="504" width="360" height="120" fill="#fff" stroke="#333"/>
  <text x="592" y="528" font-family="ui-sans-serif,sans-serif" font-size="11" font-weight="600" fill="#222">Sync / offline queue</text>
</svg>
