<svg xmlns="http://www.w3.org/2000/svg" width="960" height="640" viewBox="0 0 960 640" aria-labelledby="t6" role="img">
  <title id="t6">SIGTS low-fi wireframe: IT admin dashboard</title>
  <desc>Admin KPIs, live usage, analytics shortcut, assignments, alerts. WF-06.</desc>
  <rect fill="#f5f5f5" width="960" height="640"/>
  <text x="24" y="32" font-family="ui-sans-serif,sans-serif" font-size="13" fill="#666">WF-06 | Park authority (IT) | Admin</text>
  <rect x="0" y="48" width="200" height="592" fill="#e8e8e8" stroke="#333" stroke-width="2"/>
  <text x="24" y="88" font-family="ui-sans-serif,sans-serif" font-size="10" fill="#444">Admin | Analytics | Assignments | Intranet</text>
  <rect x="200" y="48" width="760" height="56" fill="#fff" stroke="#333"/>
  <text x="220" y="82" font-family="ui-sans-serif,sans-serif" font-size="13" font-weight="600" fill="#222">Admin dashboard</text>
  <text x="780" y="82" font-family="ui-sans-serif,sans-serif" font-size="10" fill="#555">Notifications</text>
  <rect x="220" y="120" width="172" height="80" fill="#e0e0e0" stroke="#333"/>
  <text x="232" y="156" font-family="ui-sans-serif,sans-serif" font-size="10" fill="#555">Metric A</text>
  <rect x="408" y="120" width="172" height="80" fill="#e0e0e0" stroke="#333"/>
  <text x="420" y="156" font-family="ui-sans-serif,sans-serif" font-size="10" fill="#555">Metric B</text>
  <rect x="596" y="120" width="172" height="80" fill="#e0e0e0" stroke="#333"/>
  <text x="608" y="156" font-family="ui-sans-serif,sans-serif" font-size="10" fill="#555">Metric C</text>
  <rect x="784" y="120" width="156" height="80" fill="#e0e0e0" stroke="#333"/>
  <text x="796" y="156" font-family="ui-sans-serif,sans-serif" font-size="10" fill="#555">Health</text>
  <rect x="220" y="220" width="460" height="280" fill="#fff" stroke="#333" stroke-width="2"/>
  <text x="232" y="248" font-family="ui-sans-serif,sans-serif" font-size="12" font-weight="600" fill="#222">Live / usage table</text>
  <line x1="232" y1="268" x2="660" y2="268" stroke="#eee"/>
  <rect x="232" y="280" width="416" height="24" fill="#f0f0f0" stroke="#ccc"/>
  <rect x="232" y="312" width="416" height="24" fill="#f0f0f0" stroke="#ccc"/>
  <rect x="232" y="344" width="416" height="24" fill="#f0f0f0" stroke="#ccc"/>
  <rect x="700" y="220" width="240" height="130" fill="#fff" stroke="#333"/>
  <text x="712" y="244" font-family="ui-sans-serif,sans-serif" font-size="11" font-weight="600" fill="#222">Predictive analytics</text>
  <text x="712" y="268" font-family="ui-sans-serif,sans-serif" font-size="9" fill="#666">Shortcut to deep dashboard</text>
  <rect x="700" y="362" width="240" height="138" fill="#fff" stroke="#333"/>
  <text x="712" y="386" font-family="ui-sans-serif,sans-serif" font-size="11" font-weight="600" fill="#222">Tour assignments</text>
  <text x="712" y="410" font-family="ui-sans-serif,sans-serif" font-size="9" fill="#666">Shortcut to roster view</text>
  <rect x="220" y="516" width="720" height="108" fill="#fff" stroke="#333"/>
  <text x="232" y="544" font-family="ui-sans-serif,sans-serif" font-size="12" font-weight="600" fill="#222">Alerts / rare species / audit tail</text>
</svg>
