<svg xmlns="http://www.w3.org/2000/svg" width="960" height="640" viewBox="0 0 960 640" aria-labelledby="t7" role="img">
  <title id="t7">SIGTS low-fi wireframe: intranet (staff)</title>
  <desc>Internal area with access banner, announcements, inventory, operations list. WF-07.</desc>
  <rect fill="#f5f5f5" width="960" height="640"/>
  <text x="24" y="32" font-family="ui-sans-serif,sans-serif" font-size="13" fill="#666">WF-07 | Park authority (staff) | Intranet</text>
  <rect x="200" y="48" width="760" height="64" fill="#fff" stroke="#333" stroke-width="2"/>
  <text x="220" y="88" font-family="ui-sans-serif,sans-serif" font-size="13" font-weight="600" fill="#222">Staff intranet</text>
  <rect x="220" y="100" width="720" height="28" fill="#fffce7" stroke="#c9a227"/>
  <text x="228" y="118" font-family="ui-sans-serif,sans-serif" font-size="10" fill="#665500">Access banner: boundary / intranet IP / demo mode</text>
  <rect x="220" y="144" width="340" height="200" fill="#fff" stroke="#333"/>
  <text x="232" y="172" font-family="ui-sans-serif,sans-serif" font-size="12" font-weight="600" fill="#222">Announcements</text>
  <rect x="232" y="188" width="300" height="40" fill="#f5f5f5" stroke="#bbb"/>
  <rect x="232" y="236" width="300" height="40" fill="#f5f5f5" stroke="#bbb"/>
  <rect x="580" y="144" width="360" height="200" fill="#fff" stroke="#333"/>
  <text x="592" y="172" font-family="ui-sans-serif,sans-serif" font-size="12" font-weight="600" fill="#222">Inventory / assets</text>
  <rect x="592" y="188" width="320" height="140" fill="#fafafa" stroke="#ccc" stroke-dasharray="4 2"/>
  <text x="600" y="220" font-family="ui-sans-serif,sans-serif" font-size="10" fill="#777">Table or cards</text>
  <rect x="220" y="360" width="720" height="264" fill="#fff" stroke="#333" stroke-width="2"/>
  <text x="232" y="388" font-family="ui-sans-serif,sans-serif" font-size="12" font-weight="600" fill="#222">Employee status / operations list</text>
  <line x1="232" y1="404" x2="900" y2="404" stroke="#ddd"/>
  <rect x="232" y="420" width="680" height="32" fill="#eee" stroke="#999"/>
  <rect x="232" y="460" width="680" height="32" fill="#eee" stroke="#999"/>
  <rect x="232" y="500" width="680" height="32" fill="#eee" stroke="#999"/>
</svg>
