<svg xmlns="http://www.w3.org/2000/svg" width="960" height="640" viewBox="0 0 960 640" aria-labelledby="t8" role="img">
  <title id="t8">SIGTS low-fi wireframe: biodiversity catalog</title>
  <desc>Search, filters, theme chips, card grid for species. WF-08.</desc>
  <rect fill="#f5f5f5" width="960" height="640"/>
  <text x="24" y="32" font-family="ui-sans-serif,sans-serif" font-size="13" fill="#666">WF-08 | Visitor | Wildlife and biodiversity</text>
  <rect x="200" y="48" width="760" height="100" fill="#fff" stroke="#333"/>
  <text x="220" y="84" font-family="ui-sans-serif,sans-serif" font-size="14" font-weight="600" fill="#222">Wildlife &amp; biodiversity</text>
  <rect x="220" y="96" width="240" height="36" fill="#eee" stroke="#555" stroke-dasharray="4 3"/>
  <text x="232" y="118" font-family="ui-sans-serif,sans-serif" font-size="11" fill="#666">Search / filter</text>
  <rect x="480" y="96" width="120" height="36" fill="#eee" stroke="#555"/>
  <text x="498" y="118" font-family="ui-sans-serif,sans-serif" font-size="10" fill="#444">Theme chips</text>
  <rect x="612" y="96" width="120" height="36" fill="#eee" stroke="#555"/>
  <text x="632" y="118" font-family="ui-sans-serif,sans-serif" font-size="10" fill="#444">Sort</text>
  <rect x="220" y="168" width="720" height="456" fill="#fafafa" stroke="#bbb"/>
  <text x="232" y="192" font-family="ui-sans-serif,sans-serif" font-size="11" fill="#555">Card grid (photo, name, threat, shortcut to detail)</text>
  <rect x="232" y="208" width="160" height="120" fill="#ddd" stroke="#777"/>
  <rect x="408" y="208" width="160" height="120" fill="#ddd" stroke="#777"/>
  <rect x="584" y="208" width="160" height="120" fill="#ddd" stroke="#777"/>
  <rect x="760" y="208" width="160" height="120" fill="#ddd" stroke="#777"/>
  <rect x="232" y="344" width="160" height="120" fill="#ddd" stroke="#777"/>
  <rect x="408" y="344" width="160" height="120" fill="#ddd" stroke="#777"/>
  <rect x="584" y="344" width="160" height="120" fill="#ddd" stroke="#777"/>
  <rect x="760" y="344" width="160" height="120" fill="#ddd" stroke="#777"/>
</svg>
